<?xml version="1.0" encoding="UTF-8" standalone="no"?><!DOCTYPE svg PUBLIC "-//W3C//DTD SVG 1.1//EN" "http://www.w3.org/Graphics/SVG/1.1/DTD/svg11.dtd"><svg width="100%" height="100%" viewBox="0 0 2134 2134" version="1.1" xmlns="http://www.w3.org/2000/svg" xmlns:xlink="http://www.w3.org/1999/xlink" xml:space="preserve" xmlns:serif="http://www.serif.com/" style="fill-rule:evenodd;clip-rule:evenodd;stroke-linecap:round;stroke-linejoin:round;stroke-miterlimit:1.5;"><path d="M1066.67,739.071c367.618,0 666.078,190.025 666.078,327.596c0,137.57 -298.46,327.596 -666.078,327.596c-367.619,0 -666.079,-190.026 -666.079,-327.596c0,-137.571 298.46,-327.596 666.079,-327.596Z" style="fill:none;stroke:#000;stroke-width:104.17px;"/><circle cx="1066.67" cy="1066.67" r="136.581" style="fill:none;stroke:#000;stroke-width:166.67px;"/><path d="M768.195,445.282l177.318,-197.158l-197.158,-177.317" style="fill:none;stroke:#000;stroke-width:125px;stroke-linejoin:miter;stroke-miterlimit:10;"/><path d="M945.513,248.124c-413.147,44.039 -734.954,393.71 -734.954,818.543c0,454.651 368.567,823.218 823.218,823.218" style="fill:none;stroke:#000;stroke-width:125px;stroke-miterlimit:1;"/><path d="M1373.27,1688.05l-177.317,197.158l197.157,177.317" style="fill:none;stroke:#000;stroke-width:125px;stroke-linejoin:miter;stroke-miterlimit:10;"/><path d="M1195.95,1885.21c413.146,-44.039 734.954,-393.71 734.954,-818.542c0,-454.651 -368.568,-823.219 -823.219,-823.219" style="fill:none;stroke:#000;stroke-width:125px;"/></svg>